<svg width="190" height="226" viewBox="0 0 190 226" fill="none" xmlns="http://www.w3.org/2000/svg" style="width: 100%; height: 100%;">
<g clip-path="url(#clip0_35_2960)">
<path d="M180.339 49.335C180.592 46.371 180.672 40.36 180.924 37.396C178.339 37.012 175.732 36.781 173.12 36.705C172.541 32.663 170.711 28.599 168.263 25.902C170.392 24.209 172.02 22.749 174.085 21.087C172.383 18.679 169.751 14.65 166.357 10.704C163.518 12.621 162.647 13.121 160.544 15.024C159.017 12.514 158.473 11.736 155.155 9.93202C153.002 8.76102 151.213 8.34302 148.103 8.29702C148.399 5.57802 148.321 4.54402 148.699 1.06902C143.113 0.986023 137.786 1.24502 135.269 0.749023C134.823 3.25202 134.942 4.88102 134.731 8.00902C133.396 7.98902 130.9 8.19702 128.714 8.71102C126.027 9.34302 124.026 10.803 122.764 12.028C120.807 9.97802 119.364 8.73402 117.791 7.68502C111.765 12.867 107.645 16.441 107.824 16.701C108.872 18.224 110.967 20.397 112.687 21.945C110.935 23.844 109.468 26.247 109.129 28.255C108.79 30.263 108.57 30.594 108.562 32.631C106.229 32.396 102.142 32.693 99.449 32.769C99.517 37.137 99.586 41.505 99.654 45.873C99.656 46.005 99.661 46.146 99.736 46.255C99.848 46.415 100.068 46.446 100.262 46.464C103.141 46.719 105.378 46.312 108.257 46.567C108.272 50.424 110.303 54.19 112.386 57.553C110.864 59.243 108.587 61.49 106.974 62.945C110.432 66.029 113.1 69.573 116.558 72.657C118.188 71.427 121.273 68.946 122.904 67.715C124.374 69.907 130.255 73.781 135.337 72.084C135.425 74.49 134.602 79.631 135.958 80.171C139.119 81.429 145.502 80.103 148.904 80.075C149.826 77.376 148.613 74.816 149.534 72.117C152.935 71.37 156.165 69.174 159.582 66.088C160.858 67.769 162.227 69.564 163.812 71.143C163.935 71.266 164.082 71.397 164.256 71.388C164.391 71.381 164.505 71.291 164.609 71.204C167.322 68.953 169.976 66.63 172.567 64.24C172.71 64.108 172.862 63.956 172.873 63.763C172.884 63.565 172.743 63.395 172.611 63.247C170.965 61.409 169.319 59.57 167.672 57.732C169.925 55.452 171.462 52.373 172.3 49.113C182.092 49.624 180.274 50.062 180.335 49.335H180.339ZM161.325 43.885C160 55.432 152.864 59.822 147.898 60.945C143.198 62.008 136.1 62.406 130.426 59.697C126.078 57.621 123.596 54.579 121.406 50.287C119.033 45.636 117.569 40.136 119.27 35.199C120.648 31.198 123.794 26.911 127.229 24.44C131.253 21.547 135.942 20.405 140.878 19.957C145.814 19.509 152.199 20.226 155.58 24.861C160.626 30.564 162.025 37.78 161.324 43.884L161.325 43.885Z" fill="#E3E3FF" stroke="#010101" stroke-width="1.5" stroke-linecap="round" stroke-linejoin="round"></path>
<path d="M11.631 68.375C8.13401 67.615 4.24801 69.174 2.24601 72.14C0.244009 75.106 0.253009 79.294 2.26701 82.252C2.89801 83.179 3.71101 83.992 4.68101 84.553C6.09001 85.368 7.75701 85.617 9.38401 85.665C10.696 85.704 12.012 85.622 13.309 85.421C14.163 85.289 15.02 85.1 15.788 84.704C17.655 83.74 18.741 81.622 18.868 79.525C18.995 77.428 18.285 75.357 17.294 73.505C16.176 71.414 14.506 69 11.632 68.375H11.631Z" fill="#E3E3FF" stroke="#010101" stroke-width="1.5" stroke-linecap="round" stroke-linejoin="round"></path>
<path d="M11.631 68.375C8.13401 67.615 4.24801 69.174 2.24601 72.14C0.244009 75.106 0.253009 79.294 2.26701 82.252C2.89801 83.179 3.71101 83.992 4.68101 84.553C6.09001 85.368 7.75701 85.617 9.38401 85.665C10.696 85.704 12.012 85.622 13.309 85.421C14.163 85.289 15.02 85.1 15.788 84.704C17.655 83.74 18.741 81.622 18.868 79.525C18.995 77.428 18.285 75.357 17.294 73.505C16.176 71.414 14.506 69 11.632 68.375H11.631Z" fill="#b91c1c" stroke="#010101" stroke-width="1.5" stroke-linecap="round" stroke-linejoin="round"></path>
<path d="M11.927 156.56C8.43 155.8 4.544 157.359 2.542 160.325C0.539999 163.291 0.548999 167.479 2.563 170.437C3.194 171.364 4.007 172.177 4.977 172.738C6.386 173.553 8.053 173.802 9.68 173.85C10.992 173.889 12.308 173.807 13.605 173.606C14.459 173.474 15.316 173.285 16.084 172.889C17.951 171.925 19.037 169.807 19.164 167.71C19.291 165.613 18.581 163.542 17.59 161.69C16.472 159.599 14.802 157.185 11.928 156.56H11.927Z" fill="#b91c1c" stroke="#010101" stroke-width="1.5" stroke-linecap="round" stroke-linejoin="round"></path>
<path d="M181.135 103.509C177.638 102.749 173.752 104.308 171.75 107.274C169.748 110.24 169.757 114.428 171.771 117.386C172.402 118.313 173.215 119.126 174.185 119.687C175.594 120.502 177.261 120.751 178.888 120.799C180.2 120.838 181.516 120.756 182.813 120.555C183.667 120.423 184.524 120.234 185.292 119.838C187.159 118.874 188.245 116.756 188.372 114.659C188.499 112.562 187.789 110.491 186.798 108.639C185.68 106.548 184.01 104.134 181.136 103.509H181.135Z" fill="#FF8B37" stroke="#010101" stroke-width="1.5" stroke-linecap="round" stroke-linejoin="round"></path>
<path d="M36.647 64.462C36.868 58.028 37.316 51.007 41.648 46.244C43.665 44.026 46.352 42.529 49.1 41.332C62.089 35.676 105.914 38.065 122.873 39.161C131.785 39.737 138.597 45.382 140.194 57.101C143.342 80.194 140.451 160.432 136.09 209.185C135.776 212.694 135.362 216.434 133.125 219.155C131.002 221.737 127.621 222.905 124.35 223.594C119.131 224.693 113.765 224.874 108.432 224.949C86.851 225.251 75.565 224.362 54.2 221.303C50.263 220.739 46.136 220.035 43.034 217.547C38.137 213.619 37.294 206.614 36.865 200.351C34.246 162.167 36.401 63.576 36.647 64.462Z" fill="#010101" stroke="#010101" stroke-width="1.5" stroke-linecap="round" stroke-linejoin="round"></path>
<path d="M42.799 70.843C42.996 65.11 43.166 57.537 47.025 53.293C48.822 51.317 51.216 49.983 53.665 48.916C65.238 43.877 103.163 45.95 118.274 46.927C123.06 47.236 129.598 47.473 132.658 60.415C137.027 78.899 133.27 144.271 129.441 187.091C129.161 190.218 128.793 193.55 126.799 195.975C124.907 198.276 121.895 199.317 118.98 199.93C114.329 200.909 109.549 201.071 104.797 201.137C85.568 201.406 76.636 200.668 57.599 197.942C54.091 197.44 50.414 196.812 47.65 194.595C43.286 191.095 42.536 184.853 42.153 179.273C39.819 145.25 42.58 70.054 42.799 70.843Z" fill="white" stroke="#010101" stroke-width="1.5" stroke-linecap="round" stroke-linejoin="round"></path>
<path d="M89.995 207.221C87.676 205.476 84.143 205.428 82.094 207.483C80.014 209.569 79.895 213.203 81.613 215.596C82.135 216.323 82.819 216.959 83.653 217.285C85.949 218.183 90.003 218.044 91.212 215.179C91.499 214.5 93.185 209.621 89.995 207.221Z" fill="white" stroke="#010101" stroke-width="1.5" stroke-linecap="round" stroke-linejoin="round"></path>
<path d="M25.506 92.753C26.334 82.818 26.77 72.85 26.813 62.881C26.817 61.891 27.582 61.069 28.57 61.002C51.405 59.452 74.324 59.131 97.193 60.04C98.255 60.082 99.075 60.996 99.006 62.057L97.569 84.223C97.505 85.215 96.682 85.987 95.689 85.989L39.758 86.086C38.455 86.088 37.122 86.095 35.894 86.533C34.833 86.911 33.91 87.591 33.004 88.261C29.114 91.139 25.398 94.044 25.506 92.753Z" fill="#b91c1c" stroke="#010101" stroke-width="1.5" stroke-linecap="round" stroke-linejoin="round"></path>
<path d="M162.144 96.917C137.394 96.438 112.638 96.499 88.042 97.269C87.061 97.3 86.273 98.077 86.214 99.057C85.77 106.355 86.305 115.348 86.309 122.767C86.309 123.78 87.091 124.62 88.103 124.661C107.431 125.437 131.582 124.538 150.91 125.389C151.207 125.402 151.493 125.484 151.752 125.629C154.701 127.289 157.543 129.206 160.935 131.571C161.462 131.939 162.197 131.605 162.262 130.966C163.51 118.681 163.051 111.09 163.996 98.96C164.08 97.876 163.232 96.938 162.144 96.917Z" fill="#FF8B37" stroke="#010101" stroke-width="1.5" stroke-linecap="round" stroke-linejoin="round"></path>
<path d="M24.115 186.535C24.945 176.571 25.644 148.854 25.684 138.959C25.688 137.955 26.511 137.153 27.515 137.168C53.361 137.549 97.092 136.74 107.178 137.261C108.347 137.321 109.244 138.308 109.195 139.478L107.856 178.179C107.792 179.171 106.969 179.943 105.976 179.945L38.368 179.869C37.065 179.871 35.732 179.878 34.504 180.316C33.443 180.694 32.52 181.374 31.614 182.044C27.724 184.922 24.008 187.827 24.116 186.536L24.115 186.535Z" fill="#b91c1c" stroke="#010101" stroke-width="1.5" stroke-linecap="round" stroke-linejoin="round"></path>
<path d="M34.251 68.725C53.35 68.92 72.452 68.857 91.549 68.538L34.251 68.725Z" fill="#FF8B37"></path>
<path d="M34.251 68.725C53.35 68.92 72.452 68.857 91.549 68.538" stroke="#010101" stroke-width="1.5" stroke-linecap="round" stroke-linejoin="round"></path>
<path d="M33.776 77.284C45.03 77.447 56.288 77.294 67.534 76.825L33.776 77.284Z" fill="#FF8B37"></path>
<path d="M33.776 77.284C45.03 77.447 56.288 77.294 67.534 76.825" stroke="#010101" stroke-width="1.5" stroke-linecap="round" stroke-linejoin="round"></path>
<path d="M94.989 104.69C113.7 104.836 132.412 104.798 151.122 104.575L94.989 104.69Z" fill="#FF8B37"></path>
<path d="M94.989 104.69C113.7 104.836 132.412 104.798 151.122 104.575" stroke="#010101" stroke-width="1.5" stroke-linecap="round" stroke-linejoin="round"></path>
<path d="M60.284 167.409C64.443 161.369 69.285 153.927 72.897 147.558C73.043 147.3 73.401 147.287 73.572 147.529C78.579 154.621 84.06 161.379 89.965 167.743C90.207 168.004 90.016 168.424 89.66 168.419C75.587 168.233 69.248 168.65 60.598 168.04C60.285 168.018 60.106 167.668 60.284 167.41V167.409Z" fill="white" stroke="#010101" stroke-width="1.5" stroke-linecap="round" stroke-linejoin="round"></path>
<path d="M68.08 167.674C63.749 163.068 58.136 156.821 56.703 155.222C56.526 155.025 56.216 155.049 56.069 155.269C54.529 157.573 47.374 168.305 47.742 168.31C53.023 168.388 60.329 168.261 67.778 168.352C68.136 168.356 68.325 167.934 68.08 167.674Z" fill="#010101" stroke="#010101" stroke-width="1.5" stroke-linecap="round" stroke-linejoin="round"></path>
<path d="M60.886 147.474C60.616 148.183 60.785 149.031 61.26 149.623C61.52 149.947 61.867 150.195 62.241 150.375C63.238 150.856 64.525 150.825 65.368 150.107C65.851 149.696 66.155 149.082 66.192 148.449C66.229 147.816 65.998 147.172 65.566 146.707C65.197 146.309 64.701 146.05 64.191 145.864C63.784 145.715 61.629 145.52 60.886 147.474Z" fill="white" stroke="#010101" stroke-width="1.5" stroke-linecap="round" stroke-linejoin="round"></path>
<path d="M94.967 114.004C104.685 113.987 114.403 113.969 124.121 113.952L94.967 114.004Z" fill="#FF8B37"></path>
<path d="M94.967 114.004C104.685 113.987 114.403 113.969 124.121 113.952" stroke="#010101" stroke-width="1.5" stroke-linecap="round" stroke-linejoin="round"></path>
<path d="M94.446 145.612C94.525 141.941 94.739 138.273 95.089 134.618C95.245 132.986 95.463 131.266 96.461 129.964C97.459 128.662 99.509 128.025 100.772 129.071C101.674 129.818 101.873 131.106 101.948 132.275C102.145 135.376 101.9 138.505 101.225 141.538C101.107 142.065 100.97 142.605 100.651 143.041C100.332 143.477 99.788 143.791 99.258 143.685C98.5 143.533 98.143 142.671 97.962 141.92C97.212 138.805 97.316 135.489 98.261 132.428" stroke="#010101" stroke-width="1.5" stroke-linecap="round" stroke-linejoin="round"></path>
</g>
<defs>
<clipPath id="clip0_35_2960">
<rect width="189.136" height="225.755" fill="white"></rect>
</clipPath>
</defs>
</svg>